<svg width="40" height="40" viewBox="0 0 40 40" fill="none" xmlns="http://www.w3.org/2000/svg">
<path d="M12.1133 7.89795C14.2436 6.57359 17.6715 5.77144 20.2412 10.144L31.8516 33.1509L26.1406 28.4106C24.951 27.4233 23.5056 26.8099 22.0498 26.2896C18.902 25.1643 14.7999 22.6024 13.7441 17.8813C13.3402 16.0748 12.7591 12.4889 11.3506 10.9458C10.9981 10.5598 10.4968 10.363 10.0029 10.1919L2.80859 7.69873L10.0488 8.44775C10.7762 8.52294 11.4923 8.28402 12.1133 7.89795ZM22.418 12.5503C24.3479 10.6792 30.0315 7.25055 37.2021 8.54346L25.498 18.6538L22.418 12.5503ZM13.9941 8.53174C13.3243 8.53197 12.7814 9.07479 12.7812 9.74463C12.7812 10.4146 13.3242 10.9583 13.9941 10.9585C14.6642 10.9585 15.208 10.4147 15.208 9.74463C15.2079 9.07465 14.6642 8.53174 13.9941 8.53174Z" fill="url(#paint0_linear_34526_29939)"/>
<defs>
<linearGradient id="paint0_linear_34526_29939" x1="18.0887" y1="-2.5233" x2="39.9227" y2="49.1967" gradientUnits="userSpaceOnUse">
<stop stop-color="#1E90FF"/>
<stop offset="0.5" stop-color="#0074E6"/>
<stop offset="1" stop-color="#003970"/>
</linearGradient>
</defs>
</svg>
