<svg width="500" height="500" viewBox="0 0 500 500" fill="none" xmlns="http://www.w3.org/2000/svg">
<g clip-path="url(#clip0_35860_27783)">
<rect width="500" height="500" fill="url(#paint0_linear_35860_27783)"/>
<g filter="url(#filter0_d_35860_27783)">
<rect x="70.5391" y="125.626" width="358.921" height="173.023" rx="16.5975" fill="white"/>
<rect x="71.5764" y="126.663" width="356.846" height="170.948" rx="15.5602" stroke="url(#paint1_linear_35860_27783)" stroke-width="2.07469"/>
<g filter="url(#filter1_f_35860_27783)">
<rect x="91.2852" y="150.736" width="122.804" height="122.804" rx="61.4019" fill="url(#paint2_linear_35860_27783)"/>
<rect x="91.7001" y="151.151" width="121.974" height="121.974" rx="60.9869" stroke="url(#paint3_linear_35860_27783)" stroke-width="0.829876"/>
</g>
<path d="M136.667 190.874C140.883 188.253 147.666 186.665 152.752 195.318L175.729 240.852L164.427 231.47C162.073 229.516 159.212 228.302 156.331 227.272C150.102 225.046 141.983 219.975 139.894 210.632C139.094 207.056 137.945 199.959 135.157 196.905C134.46 196.141 133.469 195.753 132.492 195.414L118.254 190.48L132.583 191.962C134.022 192.111 135.438 191.638 136.667 190.874ZM157.062 200.08C160.881 196.377 172.129 189.591 186.319 192.15L163.157 212.161L157.062 200.08ZM140.394 192.125C139.068 192.125 137.993 193.2 137.993 194.525C137.993 195.851 139.068 196.927 140.394 196.927C141.72 196.927 142.795 195.852 142.795 194.525C142.795 193.199 141.72 192.125 140.394 192.125Z" fill="url(#paint4_linear_35860_27783)"/>
<rect x="228.613" y="185.291" width="175" height="9.65707" rx="4.82854" fill="#EBF5FF"/>
<rect x="228.613" y="201.386" width="117" height="10" rx="5" fill="#EBF5FF"/>
<rect x="228.613" y="227.983" width="59" height="11" rx="5.5" fill="#EBF5FF"/>
</g>
<g opacity="0.02" filter="url(#filter2_f_35860_27783)">
<circle cx="280.427" cy="62.586" r="29.3387" transform="rotate(-124.54 280.427 62.586)" fill="url(#paint5_linear_35860_27783)"/>
<circle cx="280.427" cy="62.586" r="29.6023" transform="rotate(-124.54 280.427 62.586)" stroke="url(#paint6_linear_35860_27783)" stroke-width="0.527148"/>
</g>
<g opacity="0.04" filter="url(#filter3_f_35860_27783)">
<circle cx="303.172" cy="328.068" r="13.6186" transform="rotate(-124.54 303.172 328.068)" fill="url(#paint7_linear_35860_27783)"/>
<circle cx="303.172" cy="328.068" r="13.8822" transform="rotate(-124.54 303.172 328.068)" stroke="url(#paint8_linear_35860_27783)" stroke-width="0.527148"/>
</g>
<g opacity="0.04" filter="url(#filter4_f_35860_27783)">
<circle cx="440.098" cy="33.4618" r="13.6186" transform="rotate(-124.54 440.098 33.4618)" fill="url(#paint9_linear_35860_27783)"/>
<circle cx="440.098" cy="33.4618" r="13.8822" transform="rotate(-124.54 440.098 33.4618)" stroke="url(#paint10_linear_35860_27783)" stroke-width="0.527148"/>
</g>
<g opacity="0.05" filter="url(#filter5_f_35860_27783)">
<circle cx="87.2051" cy="443.013" r="41.6619" transform="rotate(-91.3012 87.2051 443.013)" fill="url(#paint11_linear_35860_27783)"/>
<circle cx="87.2051" cy="443.013" r="41.9255" transform="rotate(-91.3012 87.2051 443.013)" stroke="url(#paint12_linear_35860_27783)" stroke-width="0.527148"/>
</g>
<g opacity="0.02" filter="url(#filter6_f_35860_27783)">
<circle cx="402.93" cy="388.412" r="61.9879" transform="rotate(-117.123 402.93 388.412)" fill="url(#paint13_linear_35860_27783)"/>
<circle cx="402.93" cy="388.412" r="62.2514" transform="rotate(-117.123 402.93 388.412)" stroke="url(#paint14_linear_35860_27783)" stroke-width="0.527148"/>
</g>
<g opacity="0.14" filter="url(#filter7_f_35860_27783)">
<path d="M-71.8842 215.986C250.019 454.365 377.096 451.551 575.118 290.099C848.554 67.1728 1129.02 -25.9877 1403.17 269.398L1400.45 505.434C1131.89 290.099 970.371 377.61 572.424 523.446C357.127 602.347 222.432 620.519 -75.5999 537.543C-411.383 438.397 -579.849 461.287 -867.036 554.759L-869.832 160.958C-728.958 39.8565 -363.434 0.0845551 -71.8866 215.986" fill="url(#paint15_linear_35860_27783)"/>
</g>
<g filter="url(#filter8_dd_35860_27783)">
<path d="M327.801 91.7467C327.801 85.9668 332.486 81.2812 338.266 81.2812H450.115C455.895 81.2812 460.581 85.9668 460.581 91.7467V159.776C460.581 165.556 455.895 170.241 450.115 170.241H338.266C332.486 170.241 327.801 165.556 327.801 159.776V91.7467Z" fill="white"/>
<path d="M338.267 81.7998H450.115C455.609 81.7998 460.062 86.2536 460.062 91.7471V159.775C460.062 165.269 455.609 169.723 450.115 169.723H338.267C332.773 169.723 328.319 165.269 328.319 159.775V91.7471C328.319 86.2536 332.773 81.7998 338.267 81.7998Z" stroke="url(#paint16_linear_35860_27783)" stroke-width="1.03734"/>
<g clip-path="url(#clip1_35860_27783)">
<g clip-path="url(#clip2_35860_27783)">
<rect x="343.5" y="96.9814" width="24" height="24" fill="#DDB5FF"/>
<rect x="350.812" y="112.731" width="10.6875" height="9.375" rx="4.6875" transform="rotate(-90 350.812 112.731)" fill="white"/>
<path d="M348.176 121.002C348.176 117.398 350.52 114.37 354.087 113.857C354.796 113.755 356.071 113.752 356.779 113.857C360.341 114.386 362.76 117.414 362.76 121.016C362.76 125.026 359.489 128.304 355.48 128.304C351.457 128.304 348.176 125.024 348.176 121.002Z" fill="white"/>
<rect x="353.438" y="111.044" width="4.125" height="4.125" fill="white"/>
</g>
</g>
<rect x="372.5" y="100.981" width="69" height="6" rx="3" fill="#F8EFFF"/>
<rect x="372.5" y="110.981" width="41" height="6" rx="3" fill="#F8EFFF"/>
<rect x="343.5" y="130.541" width="101.78" height="6" rx="3" fill="#F8EFFF"/>
<rect x="343.5" y="139.541" width="101.78" height="6" rx="3" fill="#F8EFFF"/>
<rect x="343.5" y="148.541" width="59" height="6" rx="3" fill="#F8EFFF"/>
</g>
<g filter="url(#filter9_dd_35860_27783)">
<rect x="184.648" y="366.183" width="198.133" height="36.451" rx="8.5767" fill="white"/>
<rect x="185.167" y="366.701" width="197.095" height="35.4136" rx="8.05803" stroke="url(#paint17_linear_35860_27783)" stroke-width="1.03734"/>
<g opacity="0.2">
<rect x="281.441" y="382.048" width="88.4748" height="4" rx="2" fill="#FFA40B"/>
</g>
<g clip-path="url(#clip3_35860_27783)">
<rect x="197.512" y="382.048" width="85" height="4" rx="2" fill="#FFA40B"/>
</g>
<circle cx="280.009" cy="383.688" r="5.36044" fill="#FFA40B"/>
</g>
<g filter="url(#filter10_dd_35860_27783)">
<rect x="36.3047" y="285.27" width="113.589" height="76.0992" rx="8.95284" fill="white"/>
<rect x="36.8234" y="285.788" width="112.552" height="75.0618" rx="8.43417" stroke="url(#paint18_linear_35860_27783)" stroke-width="1.03734"/>
<g clip-path="url(#clip4_35860_27783)">
<path d="M69.8895 318.42C57.7197 340.474 47.8143 328.576 44.3828 318.512V368.399H138.341V332.924C137.181 333.925 134.515 342.58 129.099 334.938C120.248 320.717 112.773 331.547 110.543 334.938C108.314 338.329 100.904 347.081 95.2653 327.39C89.6262 307.699 85.7576 304.745 83.7249 304.527C81.6922 304.308 78.0859 302.776 69.8895 318.42Z" fill="url(#paint19_linear_35860_27783)" stroke="#03A5D9" stroke-width="1.11911"/>
<mask id="path-40-inside-1_35860_27783" fill="white">
<path d="M129.769 311.5C131.169 311.5 132.305 312.636 132.305 314.036V319.109C132.305 320.51 131.169 321.645 129.769 321.646H122.368L119.622 324.816L116.876 321.646H108.208C106.807 321.645 105.672 320.51 105.672 319.109V314.036C105.672 312.636 106.807 311.5 108.208 311.5H129.769Z"/>
</mask>
<path d="M129.769 311.5C131.169 311.5 132.305 312.636 132.305 314.036V319.109C132.305 320.51 131.169 321.645 129.769 321.646H122.368L119.622 324.816L116.876 321.646H108.208C106.807 321.645 105.672 320.51 105.672 319.109V314.036C105.672 312.636 106.807 311.5 108.208 311.5H129.769Z" fill="#03A5D9" fill-opacity="0.5"/>
<path d="M129.769 311.5L129.769 311H129.769V311.5ZM132.305 314.036L132.805 314.036L132.805 314.036L132.305 314.036ZM129.769 321.646L129.769 322.146L129.769 322.146L129.769 321.646ZM122.368 321.646V321.146H122.14L121.99 321.318L122.368 321.646ZM119.622 324.816L119.244 325.144L119.622 325.58L120 325.144L119.622 324.816ZM116.876 321.646L117.254 321.318L117.104 321.146H116.876V321.646ZM108.208 321.646L108.208 322.146H108.208V321.646ZM105.672 319.109L105.172 319.109V319.109L105.672 319.109ZM105.672 314.036L105.172 314.036V314.036H105.672ZM108.208 311.5L108.208 311L108.208 311L108.208 311.5ZM129.769 311.5L129.768 312C130.893 312 131.805 312.912 131.805 314.036L132.305 314.036L132.805 314.036C132.804 312.359 131.445 311 129.769 311L129.769 311.5ZM132.305 314.036H131.805V319.109H132.305H132.805V314.036H132.305ZM132.305 319.109H131.805C131.805 320.234 130.893 321.145 129.768 321.146L129.769 321.646L129.769 322.146C131.445 322.145 132.805 320.786 132.805 319.109H132.305ZM129.769 321.646V321.146H122.368V321.646V322.146H129.769V321.646ZM122.368 321.646L121.99 321.318L119.244 324.489L119.622 324.816L120 325.144L122.746 321.973L122.368 321.646ZM119.622 324.816L120 324.489L117.254 321.318L116.876 321.646L116.498 321.973L119.244 325.144L119.622 324.816ZM116.876 321.646V321.146H108.208V321.646V322.146H116.876V321.646ZM108.208 321.646L108.208 321.146C107.083 321.145 106.172 320.234 106.172 319.109L105.672 319.109L105.172 319.109C105.172 320.786 106.531 322.145 108.208 322.146L108.208 321.646ZM105.672 319.109H106.172V314.036H105.672H105.172V319.109H105.672ZM105.672 314.036L106.172 314.036C106.172 312.912 107.084 312 108.208 312L108.208 311.5L108.208 311C106.531 311 105.172 312.359 105.172 314.036L105.672 314.036ZM108.208 311.5V312H129.769V311.5V311H108.208V311.5Z" fill="#0180A8" mask="url(#path-40-inside-1_35860_27783)"/>
</g>
</g>
<g filter="url(#filter11_dd_35860_27783)">
<rect x="405.965" y="314.315" width="37.3444" height="37.3444" rx="8.29876" fill="white"/>
<rect x="406.484" y="314.834" width="36.3071" height="36.3071" rx="7.78008" stroke="url(#paint20_linear_35860_27783)" stroke-width="1.03734"/>
<path d="M430.989 340.27L425.781 335.062C425.349 335.437 424.844 335.728 424.268 335.937C423.692 336.146 423.08 336.251 422.431 336.251C420.875 336.251 419.557 335.71 418.476 334.63C417.396 333.549 416.855 332.245 416.855 330.718C416.855 329.191 417.396 327.887 418.476 326.806C419.557 325.726 420.868 325.186 422.41 325.186C423.937 325.186 425.237 325.726 426.31 326.806C427.384 327.887 427.92 329.191 427.92 330.718C427.92 331.338 427.82 331.935 427.618 332.512C427.416 333.088 427.114 333.628 426.71 334.133L431.962 339.341C432.091 339.456 432.156 339.604 432.156 339.784C432.156 339.964 432.084 340.126 431.94 340.27C431.811 340.4 431.652 340.465 431.465 340.465C431.277 340.465 431.119 340.4 430.989 340.27ZM422.41 334.954C423.577 334.954 424.571 334.54 425.392 333.711C426.213 332.883 426.624 331.885 426.624 330.718C426.624 329.551 426.213 328.553 425.392 327.725C424.571 326.896 423.577 326.482 422.41 326.482C421.228 326.482 420.223 326.896 419.395 327.725C418.566 328.553 418.152 329.551 418.152 330.718C418.152 331.885 418.566 332.883 419.395 333.711C420.223 334.54 421.228 334.954 422.41 334.954Z" fill="#026A44"/>
</g>
<g opacity="0.24" filter="url(#filter12_dd_35860_27783)">
<rect x="38.9883" y="41.4941" width="23.8589" height="23.8589" rx="3.18119" fill="white"/>
<rect x="39.3859" y="41.8918" width="23.0636" height="23.0636" rx="2.78354" stroke="url(#paint21_linear_35860_27783)" stroke-width="0.795297"/>
</g>
<g filter="url(#filter13_dd_35860_27783)">
<rect x="111.105" y="415.975" width="36" height="24" rx="12" fill="#BC70FB"/>
<circle cx="135.105" cy="427.975" r="10" fill="#F8EFFF"/>
</g>
<g filter="url(#filter14_dd_35860_27783)">
<g clip-path="url(#clip5_35860_27783)">
<rect x="222.68" y="36.9199" width="18" height="18" rx="3" fill="#FFB73D"/>
<path d="M229.783 50.0441C229.709 50.0441 229.641 50.0317 229.579 50.0069C229.517 49.9822 229.455 49.9388 229.393 49.8769L226.03 46.5141C225.919 46.4026 225.863 46.2663 225.863 46.1053C225.863 45.9443 225.919 45.8081 226.03 45.6966C226.142 45.5851 226.272 45.5294 226.421 45.5294C226.569 45.5294 226.699 45.5851 226.811 45.6966L229.783 48.6692L236.528 41.925C236.639 41.8135 236.772 41.7578 236.927 41.7578C237.082 41.7578 237.215 41.8135 237.327 41.925C237.438 42.0365 237.494 42.1696 237.494 42.3245C237.494 42.4793 237.438 42.6125 237.327 42.7239L230.174 49.8769C230.112 49.9388 230.05 49.9822 229.988 50.0069C229.926 50.0317 229.858 50.0441 229.783 50.0441Z" fill="white"/>
</g>
</g>
<g opacity="0.56" filter="url(#filter15_d_35860_27783)">
<rect x="426.977" y="435.686" width="22.8216" height="22.8216" rx="3.42324" fill="white"/>
<rect x="427.433" y="436.142" width="21.9087" height="21.9087" rx="2.96681" stroke="url(#paint22_linear_35860_27783)" stroke-width="0.912863"/>
</g>
<g filter="url(#filter16_d_35860_27783)">
<rect x="105.137" y="54.9795" width="37.3444" height="37.3444" rx="8.29876" fill="white"/>
<rect x="105.655" y="55.4982" width="36.3071" height="36.3071" rx="7.78008" stroke="url(#paint23_linear_35860_27783)" stroke-width="1.03734"/>
<path d="M121.342 79.0115C121.126 79.1555 120.906 79.1627 120.683 79.0331C120.459 78.9034 120.348 78.7089 120.348 78.4496V68.7245C120.348 68.4651 120.459 68.2706 120.683 68.141C120.906 68.0113 121.126 68.0185 121.342 68.1626L128.992 73.0467C129.194 73.1764 129.295 73.3565 129.295 73.587C129.295 73.8175 129.194 73.9976 128.992 74.1273L121.342 79.0115ZM121.644 77.2826L127.458 73.587L121.644 69.8915V77.2826Z" fill="#0074E6"/>
</g>
</g>
<defs>
<filter id="filter0_d_35860_27783" x="68.9296" y="124.821" width="365.36" height="179.461" filterUnits="userSpaceOnUse" color-interpolation-filters="sRGB">
<feFlood flood-opacity="0" result="BackgroundImageFix"/>
<feColorMatrix in="SourceAlpha" type="matrix" values="0 0 0 0 0 0 0 0 0 0 0 0 0 0 0 0 0 0 127 0" result="hardAlpha"/>
<feOffset dx="1.60951" dy="2.41427"/>
<feGaussianBlur stdDeviation="1.60951"/>
<feColorMatrix type="matrix" values="0 0 0 0 0.117647 0 0 0 0 0.564706 0 0 0 0 1 0 0 0 0.08 0"/>
<feBlend mode="normal" in2="BackgroundImageFix" result="effect1_dropShadow_35860_27783"/>
<feBlend mode="normal" in="SourceGraphic" in2="effect1_dropShadow_35860_27783" result="shape"/>
</filter>
<filter id="filter1_f_35860_27783" x="90.9487" y="150.4" width="123.478" height="123.477" filterUnits="userSpaceOnUse" color-interpolation-filters="sRGB">
<feFlood flood-opacity="0" result="BackgroundImageFix"/>
<feBlend mode="normal" in="SourceGraphic" in2="BackgroundImageFix" result="shape"/>
<feGaussianBlur stdDeviation="0.168224" result="effect1_foregroundBlur_35860_27783"/>
</filter>
<filter id="filter2_f_35860_27783" x="248.45" y="30.6092" width="63.9555" height="63.9545" filterUnits="userSpaceOnUse" color-interpolation-filters="sRGB">
<feFlood flood-opacity="0" result="BackgroundImageFix"/>
<feBlend mode="normal" in="SourceGraphic" in2="BackgroundImageFix" result="shape"/>
<feGaussianBlur stdDeviation="1.0543" result="effect1_foregroundBlur_35860_27783"/>
</filter>
<filter id="filter3_f_35860_27783" x="286.915" y="311.812" width="32.5141" height="32.5121" filterUnits="userSpaceOnUse" color-interpolation-filters="sRGB">
<feFlood flood-opacity="0" result="BackgroundImageFix"/>
<feBlend mode="normal" in="SourceGraphic" in2="BackgroundImageFix" result="shape"/>
<feGaussianBlur stdDeviation="1.0543" result="effect1_foregroundBlur_35860_27783"/>
</filter>
<filter id="filter4_f_35860_27783" x="423.841" y="17.2059" width="32.5141" height="32.5121" filterUnits="userSpaceOnUse" color-interpolation-filters="sRGB">
<feFlood flood-opacity="0" result="BackgroundImageFix"/>
<feBlend mode="normal" in="SourceGraphic" in2="BackgroundImageFix" result="shape"/>
<feGaussianBlur stdDeviation="1.0543" result="effect1_foregroundBlur_35860_27783"/>
</filter>
<filter id="filter5_f_35860_27783" x="42.907" y="398.716" width="88.5961" height="88.5951" filterUnits="userSpaceOnUse" color-interpolation-filters="sRGB">
<feFlood flood-opacity="0" result="BackgroundImageFix"/>
<feBlend mode="normal" in="SourceGraphic" in2="BackgroundImageFix" result="shape"/>
<feGaussianBlur stdDeviation="1.0543" result="effect1_foregroundBlur_35860_27783"/>
</filter>
<filter id="filter6_f_35860_27783" x="338.294" y="323.775" width="129.272" height="129.274" filterUnits="userSpaceOnUse" color-interpolation-filters="sRGB">
<feFlood flood-opacity="0" result="BackgroundImageFix"/>
<feBlend mode="normal" in="SourceGraphic" in2="BackgroundImageFix" result="shape"/>
<feGaussianBlur stdDeviation="1.0543" result="effect1_foregroundBlur_35860_27783"/>
</filter>
<filter id="filter7_f_35860_27783" x="-897.328" y="34.5351" width="2328" height="584.758" filterUnits="userSpaceOnUse" color-interpolation-filters="sRGB">
<feFlood flood-opacity="0" result="BackgroundImageFix"/>
<feBlend mode="normal" in="SourceGraphic" in2="BackgroundImageFix" result="shape"/>
<feGaussianBlur stdDeviation="13.7481" result="effect1_foregroundBlur_35860_27783"/>
</filter>
<filter id="filter8_dd_35860_27783" x="326.493" y="80.6272" width="140.63" height="96.809" filterUnits="userSpaceOnUse" color-interpolation-filters="sRGB">
<feFlood flood-opacity="0" result="BackgroundImageFix"/>
<feColorMatrix in="SourceAlpha" type="matrix" values="0 0 0 0 0 0 0 0 0 0 0 0 0 0 0 0 0 0 127 0" result="hardAlpha"/>
<feOffset dx="1.30818" dy="1.96227"/>
<feGaussianBlur stdDeviation="1.30818"/>
<feColorMatrix type="matrix" values="0 0 0 0 0.67451 0 0 0 0 0.286275 0 0 0 0 0.988235 0 0 0 0.08 0"/>
<feBlend mode="normal" in2="BackgroundImageFix" result="effect1_dropShadow_35860_27783"/>
<feColorMatrix in="SourceAlpha" type="matrix" values="0 0 0 0 0 0 0 0 0 0 0 0 0 0 0 0 0 0 127 0" result="hardAlpha"/>
<feOffset dx="3.27045" dy="3.92453"/>
<feGaussianBlur stdDeviation="1.63522"/>
<feColorMatrix type="matrix" values="0 0 0 0 0.67451 0 0 0 0 0.286275 0 0 0 0 0.988235 0 0 0 0.04 0"/>
<feBlend mode="normal" in2="effect1_dropShadow_35860_27783" result="effect2_dropShadow_35860_27783"/>
<feBlend mode="normal" in="SourceGraphic" in2="effect2_dropShadow_35860_27783" result="shape"/>
</filter>
<filter id="filter9_dd_35860_27783" x="183.576" y="365.647" width="204.565" height="42.8837" filterUnits="userSpaceOnUse" color-interpolation-filters="sRGB">
<feFlood flood-opacity="0" result="BackgroundImageFix"/>
<feColorMatrix in="SourceAlpha" type="matrix" values="0 0 0 0 0 0 0 0 0 0 0 0 0 0 0 0 0 0 127 0" result="hardAlpha"/>
<feOffset dx="1.07209" dy="1.60813"/>
<feGaussianBlur stdDeviation="1.07209"/>
<feColorMatrix type="matrix" values="0 0 0 0 0.964706 0 0 0 0 0.552941 0 0 0 0 0.164706 0 0 0 0.08 0"/>
<feBlend mode="normal" in2="BackgroundImageFix" result="effect1_dropShadow_35860_27783"/>
<feColorMatrix in="SourceAlpha" type="matrix" values="0 0 0 0 0 0 0 0 0 0 0 0 0 0 0 0 0 0 127 0" result="hardAlpha"/>
<feOffset dx="2.68022" dy="3.21626"/>
<feGaussianBlur stdDeviation="1.34011"/>
<feColorMatrix type="matrix" values="0 0 0 0 0.964706 0 0 0 0 0.552941 0 0 0 0 0.164706 0 0 0 0.04 0"/>
<feBlend mode="normal" in2="effect1_dropShadow_35860_27783" result="effect2_dropShadow_35860_27783"/>
<feBlend mode="normal" in="SourceGraphic" in2="effect2_dropShadow_35860_27783" result="shape"/>
</filter>
<filter id="filter10_dd_35860_27783" x="35.1856" y="284.71" width="120.304" height="82.8142" filterUnits="userSpaceOnUse" color-interpolation-filters="sRGB">
<feFlood flood-opacity="0" result="BackgroundImageFix"/>
<feColorMatrix in="SourceAlpha" type="matrix" values="0 0 0 0 0 0 0 0 0 0 0 0 0 0 0 0 0 0 127 0" result="hardAlpha"/>
<feOffset dx="1.11911" dy="1.67866"/>
<feGaussianBlur stdDeviation="1.11911"/>
<feColorMatrix type="matrix" values="0 0 0 0 0.0509804 0 0 0 0 0.65098 0 0 0 0 0.839216 0 0 0 0.08 0"/>
<feBlend mode="normal" in2="BackgroundImageFix" result="effect1_dropShadow_35860_27783"/>
<feColorMatrix in="SourceAlpha" type="matrix" values="0 0 0 0 0 0 0 0 0 0 0 0 0 0 0 0 0 0 127 0" result="hardAlpha"/>
<feOffset dx="2.79776" dy="3.35732"/>
<feGaussianBlur stdDeviation="1.39888"/>
<feColorMatrix type="matrix" values="0 0 0 0 0.0509804 0 0 0 0 0.65098 0 0 0 0 0.839216 0 0 0 0.04 0"/>
<feBlend mode="normal" in2="effect1_dropShadow_35860_27783" result="effect2_dropShadow_35860_27783"/>
<feBlend mode="normal" in="SourceGraphic" in2="effect2_dropShadow_35860_27783" result="shape"/>
</filter>
<filter id="filter11_dd_35860_27783" x="403.89" y="313.278" width="49.7919" height="49.7929" filterUnits="userSpaceOnUse" color-interpolation-filters="sRGB">
<feFlood flood-opacity="0" result="BackgroundImageFix"/>
<feColorMatrix in="SourceAlpha" type="matrix" values="0 0 0 0 0 0 0 0 0 0 0 0 0 0 0 0 0 0 127 0" result="hardAlpha"/>
<feOffset dx="2.07469" dy="3.11203"/>
<feGaussianBlur stdDeviation="2.07469"/>
<feColorMatrix type="matrix" values="0 0 0 0 0.027451 0 0 0 0 0.709804 0 0 0 0 0.466667 0 0 0 0.08 0"/>
<feBlend mode="normal" in2="BackgroundImageFix" result="effect1_dropShadow_35860_27783"/>
<feColorMatrix in="SourceAlpha" type="matrix" values="0 0 0 0 0 0 0 0 0 0 0 0 0 0 0 0 0 0 127 0" result="hardAlpha"/>
<feOffset dx="5.18672" dy="6.22407"/>
<feGaussianBlur stdDeviation="2.59336"/>
<feColorMatrix type="matrix" values="0 0 0 0 0.027451 0 0 0 0 0.709804 0 0 0 0 0.466667 0 0 0 0.04 0"/>
<feBlend mode="normal" in2="effect1_dropShadow_35860_27783" result="effect2_dropShadow_35860_27783"/>
<feBlend mode="normal" in="SourceGraphic" in2="effect2_dropShadow_35860_27783" result="shape"/>
</filter>
<filter id="filter12_dd_35860_27783" x="37.3977" y="40.6988" width="33.4029" height="33.4029" filterUnits="userSpaceOnUse" color-interpolation-filters="sRGB">
<feFlood flood-opacity="0" result="BackgroundImageFix"/>
<feColorMatrix in="SourceAlpha" type="matrix" values="0 0 0 0 0 0 0 0 0 0 0 0 0 0 0 0 0 0 127 0" result="hardAlpha"/>
<feOffset dx="1.59059" dy="2.38589"/>
<feGaussianBlur stdDeviation="1.59059"/>
<feColorMatrix type="matrix" values="0 0 0 0 0.027451 0 0 0 0 0.709804 0 0 0 0 0.466667 0 0 0 0.08 0"/>
<feBlend mode="normal" in2="BackgroundImageFix" result="effect1_dropShadow_35860_27783"/>
<feColorMatrix in="SourceAlpha" type="matrix" values="0 0 0 0 0 0 0 0 0 0 0 0 0 0 0 0 0 0 127 0" result="hardAlpha"/>
<feOffset dx="3.97649" dy="4.77178"/>
<feGaussianBlur stdDeviation="1.98824"/>
<feColorMatrix type="matrix" values="0 0 0 0 0.027451 0 0 0 0 0.709804 0 0 0 0 0.466667 0 0 0 0.04 0"/>
<feBlend mode="normal" in2="effect1_dropShadow_35860_27783" result="effect2_dropShadow_35860_27783"/>
<feBlend mode="normal" in="SourceGraphic" in2="effect2_dropShadow_35860_27783" result="shape"/>
</filter>
<filter id="filter13_dd_35860_27783" x="109.025" y="414.935" width="48.46" height="36.45" filterUnits="userSpaceOnUse" color-interpolation-filters="sRGB">
<feFlood flood-opacity="0" result="BackgroundImageFix"/>
<feColorMatrix in="SourceAlpha" type="matrix" values="0 0 0 0 0 0 0 0 0 0 0 0 0 0 0 0 0 0 127 0" result="hardAlpha"/>
<feOffset dx="2.07" dy="3.11"/>
<feGaussianBlur stdDeviation="2.075"/>
<feComposite in2="hardAlpha" operator="out"/>
<feColorMatrix type="matrix" values="0 0 0 0 0.67451 0 0 0 0 0.286275 0 0 0 0 0.988235 0 0 0 0.08 0"/>
<feBlend mode="normal" in2="BackgroundImageFix" result="effect1_dropShadow_35860_27783"/>
<feColorMatrix in="SourceAlpha" type="matrix" values="0 0 0 0 0 0 0 0 0 0 0 0 0 0 0 0 0 0 127 0" result="hardAlpha"/>
<feOffset dx="5.19" dy="6.22"/>
<feGaussianBlur stdDeviation="2.595"/>
<feComposite in2="hardAlpha" operator="out"/>
<feColorMatrix type="matrix" values="0 0 0 0 0.67451 0 0 0 0 0.286275 0 0 0 0 0.988235 0 0 0 0.04 0"/>
<feBlend mode="normal" in2="effect1_dropShadow_35860_27783" result="effect2_dropShadow_35860_27783"/>
<feBlend mode="normal" in="SourceGraphic" in2="effect2_dropShadow_35860_27783" result="shape"/>
</filter>
<filter id="filter14_dd_35860_27783" x="222.06" y="36.6099" width="21.7206" height="21.7206" filterUnits="userSpaceOnUse" color-interpolation-filters="sRGB">
<feFlood flood-opacity="0" result="BackgroundImageFix"/>
<feColorMatrix in="SourceAlpha" type="matrix" values="0 0 0 0 0 0 0 0 0 0 0 0 0 0 0 0 0 0 127 0" result="hardAlpha"/>
<feOffset dx="0.620096" dy="0.930143"/>
<feGaussianBlur stdDeviation="0.620096"/>
<feColorMatrix type="matrix" values="0 0 0 0 0.964706 0 0 0 0 0.552941 0 0 0 0 0.164706 0 0 0 0.08 0"/>
<feBlend mode="normal" in2="BackgroundImageFix" result="effect1_dropShadow_35860_27783"/>
<feColorMatrix in="SourceAlpha" type="matrix" values="0 0 0 0 0 0 0 0 0 0 0 0 0 0 0 0 0 0 127 0" result="hardAlpha"/>
<feOffset dx="1.55024" dy="1.86029"/>
<feGaussianBlur stdDeviation="0.77512"/>
<feColorMatrix type="matrix" values="0 0 0 0 0.964706 0 0 0 0 0.552941 0 0 0 0 0.164706 0 0 0 0.04 0"/>
<feBlend mode="normal" in2="effect1_dropShadow_35860_27783" result="effect2_dropShadow_35860_27783"/>
<feBlend mode="normal" in="SourceGraphic" in2="effect2_dropShadow_35860_27783" result="shape"/>
</filter>
<filter id="filter15_d_35860_27783" x="425.796" y="435.095" width="27.5415" height="27.5425" filterUnits="userSpaceOnUse" color-interpolation-filters="sRGB">
<feFlood flood-opacity="0" result="BackgroundImageFix"/>
<feColorMatrix in="SourceAlpha" type="matrix" values="0 0 0 0 0 0 0 0 0 0 0 0 0 0 0 0 0 0 127 0" result="hardAlpha"/>
<feOffset dx="1.18031" dy="1.77046"/>
<feGaussianBlur stdDeviation="1.18031"/>
<feColorMatrix type="matrix" values="0 0 0 0 0.117647 0 0 0 0 0.564706 0 0 0 0 1 0 0 0 0.08 0"/>
<feBlend mode="normal" in2="BackgroundImageFix" result="effect1_dropShadow_35860_27783"/>
<feBlend mode="normal" in="SourceGraphic" in2="effect1_dropShadow_35860_27783" result="shape"/>
</filter>
<filter id="filter16_d_35860_27783" x="103.527" y="54.1747" width="43.7818" height="43.7828" filterUnits="userSpaceOnUse" color-interpolation-filters="sRGB">
<feFlood flood-opacity="0" result="BackgroundImageFix"/>
<feColorMatrix in="SourceAlpha" type="matrix" values="0 0 0 0 0 0 0 0 0 0 0 0 0 0 0 0 0 0 127 0" result="hardAlpha"/>
<feOffset dx="1.60951" dy="2.41427"/>
<feGaussianBlur stdDeviation="1.60951"/>
<feColorMatrix type="matrix" values="0 0 0 0 0.117647 0 0 0 0 0.564706 0 0 0 0 1 0 0 0 0.08 0"/>
<feBlend mode="normal" in2="BackgroundImageFix" result="effect1_dropShadow_35860_27783"/>
<feBlend mode="normal" in="SourceGraphic" in2="effect1_dropShadow_35860_27783" result="shape"/>
</filter>
<linearGradient id="paint0_linear_35860_27783" x1="250" y1="0" x2="250" y2="500" gradientUnits="userSpaceOnUse">
<stop stop-color="#FBFCFE"/>
<stop offset="1" stop-color="white"/>
</linearGradient>
<linearGradient id="paint1_linear_35860_27783" x1="70.5391" y1="127.371" x2="311.742" y2="400.762" gradientUnits="userSpaceOnUse">
<stop stop-color="#EBF5FF"/>
<stop offset="1" stop-color="#4DA7FF"/>
</linearGradient>
<linearGradient id="paint2_linear_35860_27783" x1="152.687" y1="212.138" x2="86.8394" y2="493.762" gradientUnits="userSpaceOnUse">
<stop stop-color="white"/>
<stop offset="1" stop-color="#D1E8FF"/>
</linearGradient>
<linearGradient id="paint3_linear_35860_27783" x1="95.6097" y1="150.736" x2="209.764" y2="273.54" gradientUnits="userSpaceOnUse">
<stop stop-color="#EBF5FF"/>
<stop offset="1" stop-color="#7ABEFF"/>
</linearGradient>
<linearGradient id="paint4_linear_35860_27783" x1="148.494" y1="170.249" x2="191.706" y2="272.606" gradientUnits="userSpaceOnUse">
<stop stop-color="#1E90FF"/>
<stop offset="0.5" stop-color="#0074E6"/>
<stop offset="1" stop-color="#003970"/>
</linearGradient>
<linearGradient id="paint5_linear_35860_27783" x1="251.089" y1="44.5899" x2="316.376" y2="49.5103" gradientUnits="userSpaceOnUse">
<stop stop-color="#68279D"/>
<stop offset="0.4" stop-color="#BC70FB"/>
<stop offset="1" stop-color="#7ABEFF"/>
</linearGradient>
<linearGradient id="paint6_linear_35860_27783" x1="251.089" y1="53.6669" x2="309.766" y2="71.5052" gradientUnits="userSpaceOnUse">
<stop stop-color="#1E90FF"/>
<stop offset="1" stop-color="#8735CC"/>
</linearGradient>
<linearGradient id="paint7_linear_35860_27783" x1="289.554" y1="319.715" x2="319.859" y2="321.999" gradientUnits="userSpaceOnUse">
<stop stop-color="#68279D"/>
<stop offset="0.4" stop-color="#BC70FB"/>
<stop offset="1" stop-color="#7ABEFF"/>
</linearGradient>
<linearGradient id="paint8_linear_35860_27783" x1="289.554" y1="323.928" x2="316.791" y2="332.208" gradientUnits="userSpaceOnUse">
<stop stop-color="#1E90FF"/>
<stop offset="1" stop-color="#8735CC"/>
</linearGradient>
<linearGradient id="paint9_linear_35860_27783" x1="426.48" y1="25.1083" x2="456.785" y2="27.3923" gradientUnits="userSpaceOnUse">
<stop stop-color="#68279D"/>
<stop offset="0.4" stop-color="#BC70FB"/>
<stop offset="1" stop-color="#7ABEFF"/>
</linearGradient>
<linearGradient id="paint10_linear_35860_27783" x1="426.48" y1="29.3217" x2="453.717" y2="37.602" gradientUnits="userSpaceOnUse">
<stop stop-color="#1E90FF"/>
<stop offset="1" stop-color="#8735CC"/>
</linearGradient>
<linearGradient id="paint11_linear_35860_27783" x1="45.5432" y1="417.458" x2="138.252" y2="424.445" gradientUnits="userSpaceOnUse">
<stop stop-color="#68279D"/>
<stop offset="0.4" stop-color="#BC70FB"/>
<stop offset="1" stop-color="#7ABEFF"/>
</linearGradient>
<linearGradient id="paint12_linear_35860_27783" x1="45.5432" y1="430.348" x2="128.867" y2="455.679" gradientUnits="userSpaceOnUse">
<stop stop-color="#1E90FF"/>
<stop offset="1" stop-color="#8735CC"/>
</linearGradient>
<linearGradient id="paint13_linear_35860_27783" x1="340.942" y1="350.389" x2="478.882" y2="360.785" gradientUnits="userSpaceOnUse">
<stop stop-color="#68279D"/>
<stop offset="0.4" stop-color="#BC70FB"/>
<stop offset="1" stop-color="#7ABEFF"/>
</linearGradient>
<linearGradient id="paint14_linear_35860_27783" x1="340.942" y1="369.567" x2="464.918" y2="407.257" gradientUnits="userSpaceOnUse">
<stop stop-color="#1E90FF"/>
<stop offset="1" stop-color="#8735CC"/>
</linearGradient>
<linearGradient id="paint15_linear_35860_27783" x1="-1218.31" y1="408.723" x2="-641.464" y2="1436.11" gradientUnits="userSpaceOnUse">
<stop stop-color="#7ABEFF"/>
<stop offset="0.322115" stop-color="#D1E8FF"/>
<stop offset="0.802885" stop-color="#EEDAFF"/>
<stop offset="1" stop-color="#BC70FB"/>
</linearGradient>
<linearGradient id="paint16_linear_35860_27783" x1="327.801" y1="82.1782" x2="450.236" y2="182.029" gradientUnits="userSpaceOnUse">
<stop stop-color="#F8EFFF"/>
<stop offset="1" stop-color="#CA96FA"/>
</linearGradient>
<linearGradient id="paint17_linear_35860_27783" x1="184.648" y1="366.55" x2="215.624" y2="458.548" gradientUnits="userSpaceOnUse">
<stop stop-color="#FFF5E5"/>
<stop offset="1" stop-color="#FFB73D"/>
</linearGradient>
<linearGradient id="paint18_linear_35860_27783" x1="36.3047" y1="286.037" x2="141.041" y2="371.457" gradientUnits="userSpaceOnUse">
<stop stop-color="#E4F8FF"/>
<stop offset="1" stop-color="#55D2FA"/>
</linearGradient>
<linearGradient id="paint19_linear_35860_27783" x1="91.3619" y1="304.386" x2="91.4671" y2="368.292" gradientUnits="userSpaceOnUse">
<stop stop-color="#E4F8FF"/>
<stop offset="1" stop-color="#E4F8FF"/>
</linearGradient>
<linearGradient id="paint20_linear_35860_27783" x1="405.965" y1="314.692" x2="450.12" y2="338.818" gradientUnits="userSpaceOnUse">
<stop stop-color="#DFFEF3"/>
<stop offset="1" stop-color="#25D092"/>
</linearGradient>
<linearGradient id="paint21_linear_35860_27783" x1="38.9883" y1="41.7347" x2="67.1986" y2="57.1487" gradientUnits="userSpaceOnUse">
<stop stop-color="#DFFEF3"/>
<stop offset="1" stop-color="#25D092"/>
</linearGradient>
<linearGradient id="paint22_linear_35860_27783" x1="426.977" y1="435.916" x2="453.96" y2="450.659" gradientUnits="userSpaceOnUse">
<stop stop-color="#EBF5FF"/>
<stop offset="1" stop-color="#4DA7FF"/>
</linearGradient>
<linearGradient id="paint23_linear_35860_27783" x1="105.137" y1="55.356" x2="149.292" y2="79.4823" gradientUnits="userSpaceOnUse">
<stop stop-color="#EBF5FF"/>
<stop offset="1" stop-color="#4DA7FF"/>
</linearGradient>
<clipPath id="clip0_35860_27783">
<rect width="500" height="500" fill="white"/>
</clipPath>
<clipPath id="clip1_35860_27783">
<rect x="343.5" y="96.9814" width="24" height="24" rx="12" fill="white"/>
</clipPath>
<clipPath id="clip2_35860_27783">
<rect width="24" height="24" fill="white" transform="translate(343.5 96.9814)"/>
</clipPath>
<clipPath id="clip3_35860_27783">
<rect x="197.512" y="382.048" width="85" height="4" rx="2" fill="white"/>
</clipPath>
<clipPath id="clip4_35860_27783">
<rect width="86.7307" height="49.2406" fill="white" transform="translate(49.7344 298.699)"/>
</clipPath>
<clipPath id="clip5_35860_27783">
<rect x="222.68" y="36.9199" width="18" height="18" rx="3" fill="white"/>
</clipPath>
</defs>
</svg>
